<mxfile host="app.diagrams.net" modified="2022-03-02T13:27:03.510Z" agent="5.0 (Macintosh; Intel Mac OS X 10_15_7) AppleWebKit/605.1.15 (KHTML, like Gecko) Version/15.2 Safari/605.1.15" etag="eZ8qsG0nSJtASzitb8V0" version="16.6.1" type="github">
  <diagram id="2Uzb-z86HZKQ5v5p6GFp" name="Page-1">
    <mxGraphModel dx="1135" dy="729" grid="1" gridSize="10" guides="1" tooltips="1" connect="1" arrows="1" fold="1" page="1" pageScale="1" pageWidth="827" pageHeight="1169" math="0" shadow="0">
      <root>
        <mxCell id="0" />
        <mxCell id="1" parent="0" />
        <mxCell id="zVBONQhi05cmUvKjJV3k-1" value="" style="rounded=0;whiteSpace=wrap;html=1;" vertex="1" parent="1">
          <mxGeometry x="20" y="80" width="780" height="560" as="geometry" />
        </mxCell>
        <mxCell id="zVBONQhi05cmUvKjJV3k-7" value="4. Create pages" style="edgeStyle=orthogonalEdgeStyle;rounded=0;orthogonalLoop=1;jettySize=auto;html=1;" edge="1" parent="1" source="zVBONQhi05cmUvKjJV3k-2" target="zVBONQhi05cmUvKjJV3k-6">
          <mxGeometry relative="1" as="geometry" />
        </mxCell>
        <mxCell id="zVBONQhi05cmUvKjJV3k-15" style="edgeStyle=orthogonalEdgeStyle;rounded=0;orthogonalLoop=1;jettySize=auto;html=1;entryX=0.5;entryY=0;entryDx=0;entryDy=0;" edge="1" parent="1" source="zVBONQhi05cmUvKjJV3k-2" target="zVBONQhi05cmUvKjJV3k-14">
          <mxGeometry relative="1" as="geometry" />
        </mxCell>
        <mxCell id="zVBONQhi05cmUvKjJV3k-18" style="edgeStyle=orthogonalEdgeStyle;rounded=0;orthogonalLoop=1;jettySize=auto;html=1;entryX=1;entryY=0.5;entryDx=0;entryDy=0;entryPerimeter=0;" edge="1" parent="1" source="zVBONQhi05cmUvKjJV3k-2" target="zVBONQhi05cmUvKjJV3k-3">
          <mxGeometry relative="1" as="geometry">
            <Array as="points">
              <mxPoint x="405" y="190" />
            </Array>
          </mxGeometry>
        </mxCell>
        <mxCell id="zVBONQhi05cmUvKjJV3k-2" value="React &amp;nbsp;and Gatsby JS" style="rounded=0;whiteSpace=wrap;html=1;" vertex="1" parent="1">
          <mxGeometry x="340" y="300" width="130" height="70" as="geometry" />
        </mxCell>
        <mxCell id="zVBONQhi05cmUvKjJV3k-4" value="2. Fetch static content &lt;br&gt;data" style="edgeStyle=orthogonalEdgeStyle;rounded=0;orthogonalLoop=1;jettySize=auto;html=1;labelBorderColor=none;" edge="1" parent="1" source="zVBONQhi05cmUvKjJV3k-3" target="zVBONQhi05cmUvKjJV3k-2">
          <mxGeometry relative="1" as="geometry" />
        </mxCell>
        <mxCell id="zVBONQhi05cmUvKjJV3k-3" value="Content" style="strokeWidth=2;html=1;shape=mxgraph.flowchart.database;whiteSpace=wrap;" vertex="1" parent="1">
          <mxGeometry x="140" y="160" width="90" height="60" as="geometry" />
        </mxCell>
        <mxCell id="zVBONQhi05cmUvKjJV3k-6" value="ReactJS&lt;br&gt;HTML&lt;br&gt;CSS" style="sketch=0;pointerEvents=1;shadow=0;dashed=0;html=1;strokeColor=none;fillColor=#505050;labelPosition=center;verticalLabelPosition=bottom;verticalAlign=top;outlineConnect=0;align=center;shape=mxgraph.office.concepts.document_blank;" vertex="1" parent="1">
          <mxGeometry x="650" y="295" width="60" height="80" as="geometry" />
        </mxCell>
        <mxCell id="zVBONQhi05cmUvKjJV3k-11" value="1. Gastby build" style="edgeStyle=orthogonalEdgeStyle;rounded=0;orthogonalLoop=1;jettySize=auto;html=1;entryX=0;entryY=0.5;entryDx=0;entryDy=0;" edge="1" parent="1" source="zVBONQhi05cmUvKjJV3k-8" target="zVBONQhi05cmUvKjJV3k-2">
          <mxGeometry relative="1" as="geometry" />
        </mxCell>
        <mxCell id="zVBONQhi05cmUvKjJV3k-8" value="Azure &amp;nbsp;pipeline" style="rounded=0;whiteSpace=wrap;html=1;" vertex="1" parent="1">
          <mxGeometry x="70" y="305" width="120" height="60" as="geometry" />
        </mxCell>
        <mxCell id="zVBONQhi05cmUvKjJV3k-16" style="edgeStyle=orthogonalEdgeStyle;rounded=0;orthogonalLoop=1;jettySize=auto;html=1;entryX=0.5;entryY=1;entryDx=0;entryDy=0;" edge="1" parent="1" source="zVBONQhi05cmUvKjJV3k-14" target="zVBONQhi05cmUvKjJV3k-2">
          <mxGeometry relative="1" as="geometry" />
        </mxCell>
        <mxCell id="zVBONQhi05cmUvKjJV3k-23" value="3. Request and receive dynamic data" style="edgeLabel;html=1;align=center;verticalAlign=middle;resizable=0;points=[];" vertex="1" connectable="0" parent="zVBONQhi05cmUvKjJV3k-16">
          <mxGeometry x="0.3565" y="-3" relative="1" as="geometry">
            <mxPoint as="offset" />
          </mxGeometry>
        </mxCell>
        <mxCell id="zVBONQhi05cmUvKjJV3k-14" value="STRAPI / IRAD APIs" style="aspect=fixed;perimeter=ellipsePerimeter;html=1;align=center;shadow=0;dashed=0;fontColor=#4277BB;labelBackgroundColor=#ffffff;fontSize=12;spacingTop=3;image;image=img/lib/ibm/infrastructure/mobile_backend.svg;" vertex="1" parent="1">
          <mxGeometry x="390" y="470" width="60" height="60" as="geometry" />
        </mxCell>
        <mxCell id="zVBONQhi05cmUvKjJV3k-19" value="" style="aspect=fixed;html=1;points=[];align=center;image;fontSize=12;image=img/lib/azure2/general/Browser.svg;" vertex="1" parent="1">
          <mxGeometry x="96" y="559" width="65" height="52" as="geometry" />
        </mxCell>
        <mxCell id="zVBONQhi05cmUvKjJV3k-20" style="edgeStyle=orthogonalEdgeStyle;rounded=0;orthogonalLoop=1;jettySize=auto;html=1;" edge="1" source="zVBONQhi05cmUvKjJV3k-21" target="zVBONQhi05cmUvKjJV3k-19" parent="1">
          <mxGeometry relative="1" as="geometry" />
        </mxCell>
        <mxCell id="zVBONQhi05cmUvKjJV3k-25" value="6. Access Nitor website" style="edgeLabel;html=1;align=center;verticalAlign=middle;resizable=0;points=[];" vertex="1" connectable="0" parent="zVBONQhi05cmUvKjJV3k-20">
          <mxGeometry x="-0.2941" y="1" relative="1" as="geometry">
            <mxPoint as="offset" />
          </mxGeometry>
        </mxCell>
        <mxCell id="zVBONQhi05cmUvKjJV3k-21" value="" style="sketch=0;points=[[0,0,0],[0.25,0,0],[0.5,0,0],[0.75,0,0],[1,0,0],[0,1,0],[0.25,1,0],[0.5,1,0],[0.75,1,0],[1,1,0],[0,0.25,0],[0,0.5,0],[0,0.75,0],[1,0.25,0],[1,0.5,0],[1,0.75,0]];outlineConnect=0;fontColor=#232F3E;gradientColor=#F54749;gradientDirection=north;fillColor=#C7131F;strokeColor=#ffffff;dashed=0;verticalLabelPosition=bottom;verticalAlign=top;align=center;html=1;fontSize=12;fontStyle=0;aspect=fixed;shape=mxgraph.aws4.resourceIcon;resIcon=mxgraph.aws4.amplify;" vertex="1" parent="1">
          <mxGeometry x="89.5" y="430" width="78" height="78" as="geometry" />
        </mxCell>
        <mxCell id="zVBONQhi05cmUvKjJV3k-22" style="edgeStyle=orthogonalEdgeStyle;rounded=0;orthogonalLoop=1;jettySize=auto;html=1;entryX=0.5;entryY=0;entryDx=0;entryDy=0;entryPerimeter=0;" edge="1" target="zVBONQhi05cmUvKjJV3k-21" parent="1">
          <mxGeometry relative="1" as="geometry">
            <mxPoint x="58.5" y="365" as="sourcePoint" />
          </mxGeometry>
        </mxCell>
        <mxCell id="zVBONQhi05cmUvKjJV3k-24" value="5. Deploy website" style="edgeLabel;html=1;align=center;verticalAlign=middle;resizable=0;points=[];" vertex="1" connectable="0" parent="zVBONQhi05cmUvKjJV3k-22">
          <mxGeometry x="0.3778" relative="1" as="geometry">
            <mxPoint as="offset" />
          </mxGeometry>
        </mxCell>
      </root>
    </mxGraphModel>
  </diagram>
</mxfile>
